<mxfile host="app.diagrams.net" agent="Mozilla/5.0 (Windows NT 10.0; Win64; x64) AppleWebKit/537.36 (KHTML, like Gecko) Chrome/131.0.0.0 Safari/537.36 Edg/131.0.0.0" version="25.0.1">
  <diagram name="第 1 页" id="uEKOuPRaB68Q7ZfTRYWh">
    <mxGraphModel dx="1024" dy="1133" grid="1" gridSize="10" guides="1" tooltips="1" connect="1" arrows="1" fold="1" page="1" pageScale="1" pageWidth="5000" pageHeight="5000" math="0" shadow="0">
      <root>
        <mxCell id="0" />
        <mxCell id="1" parent="0" />
        <mxCell id="EbhsNf4pfZBx0JSO0l03-31" style="edgeStyle=orthogonalEdgeStyle;rounded=0;orthogonalLoop=1;jettySize=auto;html=1;exitX=0.5;exitY=1;exitDx=0;exitDy=0;entryX=0.5;entryY=0;entryDx=0;entryDy=0;shape=link;fontSize=16;" edge="1" parent="1" source="EbhsNf4pfZBx0JSO0l03-1" target="EbhsNf4pfZBx0JSO0l03-30">
          <mxGeometry relative="1" as="geometry" />
        </mxCell>
        <mxCell id="EbhsNf4pfZBx0JSO0l03-61" value="n" style="edgeLabel;html=1;align=center;verticalAlign=middle;resizable=0;points=[];fontSize=16;" vertex="1" connectable="0" parent="EbhsNf4pfZBx0JSO0l03-31">
          <mxGeometry x="-0.05" y="-3" relative="1" as="geometry">
            <mxPoint as="offset" />
          </mxGeometry>
        </mxCell>
        <mxCell id="EbhsNf4pfZBx0JSO0l03-1" value="课程" style="rounded=0;whiteSpace=wrap;html=1;fontSize=16;" vertex="1" parent="1">
          <mxGeometry x="200" y="260" width="120" height="60" as="geometry" />
        </mxCell>
        <mxCell id="EbhsNf4pfZBx0JSO0l03-2" value="教师" style="rounded=0;whiteSpace=wrap;html=1;fontSize=16;" vertex="1" parent="1">
          <mxGeometry x="520" y="260" width="120" height="60" as="geometry" />
        </mxCell>
        <mxCell id="EbhsNf4pfZBx0JSO0l03-3" value="教室" style="rounded=0;whiteSpace=wrap;html=1;fontSize=16;" vertex="1" parent="1">
          <mxGeometry x="200" y="440" width="120" height="60" as="geometry" />
        </mxCell>
        <mxCell id="EbhsNf4pfZBx0JSO0l03-4" value="学生" style="rounded=0;whiteSpace=wrap;html=1;fontSize=16;" vertex="1" parent="1">
          <mxGeometry x="520" y="440" width="120" height="60" as="geometry" />
        </mxCell>
        <mxCell id="EbhsNf4pfZBx0JSO0l03-41" style="rounded=0;orthogonalLoop=1;jettySize=auto;html=1;entryX=0;entryY=0.5;entryDx=0;entryDy=0;fontSize=16;" edge="1" parent="1" source="EbhsNf4pfZBx0JSO0l03-5" target="EbhsNf4pfZBx0JSO0l03-1">
          <mxGeometry relative="1" as="geometry" />
        </mxCell>
        <mxCell id="EbhsNf4pfZBx0JSO0l03-5" value="课程名称" style="ellipse;whiteSpace=wrap;html=1;fontSize=16;" vertex="1" parent="1">
          <mxGeometry x="60" y="210" width="70" height="40" as="geometry" />
        </mxCell>
        <mxCell id="EbhsNf4pfZBx0JSO0l03-42" style="rounded=0;orthogonalLoop=1;jettySize=auto;html=1;exitX=1;exitY=0.5;exitDx=0;exitDy=0;fontSize=16;" edge="1" parent="1" source="EbhsNf4pfZBx0JSO0l03-6">
          <mxGeometry relative="1" as="geometry">
            <mxPoint x="200" y="290" as="targetPoint" />
          </mxGeometry>
        </mxCell>
        <mxCell id="EbhsNf4pfZBx0JSO0l03-6" value="课程代码" style="ellipse;whiteSpace=wrap;html=1;fontSize=16;" vertex="1" parent="1">
          <mxGeometry x="55" y="160" width="80" height="40" as="geometry" />
        </mxCell>
        <mxCell id="EbhsNf4pfZBx0JSO0l03-43" style="rounded=0;orthogonalLoop=1;jettySize=auto;html=1;exitX=0.5;exitY=1;exitDx=0;exitDy=0;entryX=0;entryY=0.5;entryDx=0;entryDy=0;fontSize=16;" edge="1" parent="1" source="EbhsNf4pfZBx0JSO0l03-7" target="EbhsNf4pfZBx0JSO0l03-1">
          <mxGeometry relative="1" as="geometry" />
        </mxCell>
        <mxCell id="EbhsNf4pfZBx0JSO0l03-7" value="课程类型" style="ellipse;whiteSpace=wrap;html=1;fontSize=16;" vertex="1" parent="1">
          <mxGeometry x="150" y="160" width="70" height="40" as="geometry" />
        </mxCell>
        <mxCell id="EbhsNf4pfZBx0JSO0l03-44" style="rounded=0;orthogonalLoop=1;jettySize=auto;html=1;exitX=0.5;exitY=1;exitDx=0;exitDy=0;fontSize=16;" edge="1" parent="1" source="EbhsNf4pfZBx0JSO0l03-8" target="EbhsNf4pfZBx0JSO0l03-1">
          <mxGeometry relative="1" as="geometry" />
        </mxCell>
        <mxCell id="EbhsNf4pfZBx0JSO0l03-8" value="课程学分" style="ellipse;whiteSpace=wrap;html=1;fontSize=16;" vertex="1" parent="1">
          <mxGeometry x="230" y="160" width="70" height="40" as="geometry" />
        </mxCell>
        <mxCell id="EbhsNf4pfZBx0JSO0l03-45" style="rounded=0;orthogonalLoop=1;jettySize=auto;html=1;exitX=0.5;exitY=1;exitDx=0;exitDy=0;entryX=0.5;entryY=0;entryDx=0;entryDy=0;fontSize=16;" edge="1" parent="1" source="EbhsNf4pfZBx0JSO0l03-9" target="EbhsNf4pfZBx0JSO0l03-1">
          <mxGeometry relative="1" as="geometry" />
        </mxCell>
        <mxCell id="EbhsNf4pfZBx0JSO0l03-9" value="课程学时" style="ellipse;whiteSpace=wrap;html=1;fontSize=16;" vertex="1" parent="1">
          <mxGeometry x="310" y="160" width="70" height="40" as="geometry" />
        </mxCell>
        <mxCell id="EbhsNf4pfZBx0JSO0l03-50" style="rounded=0;orthogonalLoop=1;jettySize=auto;html=1;entryX=0.633;entryY=-0.033;entryDx=0;entryDy=0;entryPerimeter=0;fontSize=16;" edge="1" parent="1" source="EbhsNf4pfZBx0JSO0l03-11" target="EbhsNf4pfZBx0JSO0l03-2">
          <mxGeometry relative="1" as="geometry" />
        </mxCell>
        <mxCell id="EbhsNf4pfZBx0JSO0l03-11" value="教师姓名" style="ellipse;whiteSpace=wrap;html=1;fontSize=16;" vertex="1" parent="1">
          <mxGeometry x="520" y="160" width="70" height="40" as="geometry" />
        </mxCell>
        <mxCell id="EbhsNf4pfZBx0JSO0l03-51" style="rounded=0;orthogonalLoop=1;jettySize=auto;html=1;fontSize=16;" edge="1" parent="1" source="EbhsNf4pfZBx0JSO0l03-12" target="EbhsNf4pfZBx0JSO0l03-2">
          <mxGeometry relative="1" as="geometry" />
        </mxCell>
        <mxCell id="EbhsNf4pfZBx0JSO0l03-12" value="教师工号" style="ellipse;whiteSpace=wrap;html=1;fontSize=16;" vertex="1" parent="1">
          <mxGeometry x="600" y="160" width="70" height="40" as="geometry" />
        </mxCell>
        <mxCell id="EbhsNf4pfZBx0JSO0l03-52" style="rounded=0;orthogonalLoop=1;jettySize=auto;html=1;entryX=0.617;entryY=0.033;entryDx=0;entryDy=0;entryPerimeter=0;fontSize=16;" edge="1" parent="1" source="EbhsNf4pfZBx0JSO0l03-13" target="EbhsNf4pfZBx0JSO0l03-2">
          <mxGeometry relative="1" as="geometry" />
        </mxCell>
        <mxCell id="EbhsNf4pfZBx0JSO0l03-13" value="所属院系" style="ellipse;whiteSpace=wrap;html=1;fontSize=16;" vertex="1" parent="1">
          <mxGeometry x="680" y="160" width="70" height="40" as="geometry" />
        </mxCell>
        <mxCell id="EbhsNf4pfZBx0JSO0l03-53" style="rounded=0;orthogonalLoop=1;jettySize=auto;html=1;entryX=1;entryY=0.5;entryDx=0;entryDy=0;fontSize=16;" edge="1" parent="1" source="EbhsNf4pfZBx0JSO0l03-14" target="EbhsNf4pfZBx0JSO0l03-2">
          <mxGeometry relative="1" as="geometry" />
        </mxCell>
        <mxCell id="EbhsNf4pfZBx0JSO0l03-14" value="课程范围" style="ellipse;whiteSpace=wrap;html=1;fontSize=16;" vertex="1" parent="1">
          <mxGeometry x="680" y="220" width="70" height="40" as="geometry" />
        </mxCell>
        <mxCell id="EbhsNf4pfZBx0JSO0l03-54" style="rounded=0;orthogonalLoop=1;jettySize=auto;html=1;fontSize=16;" edge="1" parent="1" source="EbhsNf4pfZBx0JSO0l03-15" target="EbhsNf4pfZBx0JSO0l03-2">
          <mxGeometry relative="1" as="geometry" />
        </mxCell>
        <mxCell id="EbhsNf4pfZBx0JSO0l03-55" style="edgeStyle=orthogonalEdgeStyle;rounded=0;orthogonalLoop=1;jettySize=auto;html=1;exitX=0.5;exitY=1;exitDx=0;exitDy=0;fontSize=16;" edge="1" parent="1" source="EbhsNf4pfZBx0JSO0l03-15">
          <mxGeometry relative="1" as="geometry">
            <mxPoint x="710" y="330" as="targetPoint" />
          </mxGeometry>
        </mxCell>
        <mxCell id="EbhsNf4pfZBx0JSO0l03-15" value="工作量限制" style="ellipse;whiteSpace=wrap;html=1;fontSize=16;" vertex="1" parent="1">
          <mxGeometry x="680" y="280" width="70" height="40" as="geometry" />
        </mxCell>
        <mxCell id="EbhsNf4pfZBx0JSO0l03-46" style="rounded=0;orthogonalLoop=1;jettySize=auto;html=1;entryX=0.5;entryY=1;entryDx=0;entryDy=0;fontSize=16;" edge="1" parent="1" source="EbhsNf4pfZBx0JSO0l03-16" target="EbhsNf4pfZBx0JSO0l03-4">
          <mxGeometry relative="1" as="geometry" />
        </mxCell>
        <mxCell id="EbhsNf4pfZBx0JSO0l03-16" value="学生学号" style="ellipse;whiteSpace=wrap;html=1;fontSize=16;" vertex="1" parent="1">
          <mxGeometry x="490" y="550" width="70" height="40" as="geometry" />
        </mxCell>
        <mxCell id="EbhsNf4pfZBx0JSO0l03-17" value="教室设施" style="ellipse;whiteSpace=wrap;html=1;fontSize=16;" vertex="1" parent="1">
          <mxGeometry x="170" y="550" width="70" height="40" as="geometry" />
        </mxCell>
        <mxCell id="EbhsNf4pfZBx0JSO0l03-58" style="rounded=0;orthogonalLoop=1;jettySize=auto;html=1;fontSize=16;" edge="1" parent="1" source="EbhsNf4pfZBx0JSO0l03-18">
          <mxGeometry relative="1" as="geometry">
            <mxPoint x="200" y="470" as="targetPoint" />
          </mxGeometry>
        </mxCell>
        <mxCell id="EbhsNf4pfZBx0JSO0l03-18" value="教室容量" style="ellipse;whiteSpace=wrap;html=1;fontSize=16;" vertex="1" parent="1">
          <mxGeometry x="70" y="550" width="70" height="40" as="geometry" />
        </mxCell>
        <mxCell id="EbhsNf4pfZBx0JSO0l03-57" style="rounded=0;orthogonalLoop=1;jettySize=auto;html=1;fontSize=16;" edge="1" parent="1" source="EbhsNf4pfZBx0JSO0l03-19">
          <mxGeometry relative="1" as="geometry">
            <mxPoint x="200" y="470" as="targetPoint" />
          </mxGeometry>
        </mxCell>
        <mxCell id="EbhsNf4pfZBx0JSO0l03-19" value="教室位置" style="ellipse;whiteSpace=wrap;html=1;fontSize=16;" vertex="1" parent="1">
          <mxGeometry x="70" y="480" width="70" height="40" as="geometry" />
        </mxCell>
        <mxCell id="EbhsNf4pfZBx0JSO0l03-56" style="rounded=0;orthogonalLoop=1;jettySize=auto;html=1;entryX=0;entryY=0.5;entryDx=0;entryDy=0;fontSize=16;" edge="1" parent="1" source="EbhsNf4pfZBx0JSO0l03-20" target="EbhsNf4pfZBx0JSO0l03-3">
          <mxGeometry relative="1" as="geometry" />
        </mxCell>
        <mxCell id="EbhsNf4pfZBx0JSO0l03-20" value="教室编号" style="ellipse;whiteSpace=wrap;html=1;fontSize=16;" vertex="1" parent="1">
          <mxGeometry x="70" y="420" width="70" height="40" as="geometry" />
        </mxCell>
        <mxCell id="EbhsNf4pfZBx0JSO0l03-47" style="rounded=0;orthogonalLoop=1;jettySize=auto;html=1;exitX=0.5;exitY=0;exitDx=0;exitDy=0;fontSize=16;" edge="1" parent="1" source="EbhsNf4pfZBx0JSO0l03-23" target="EbhsNf4pfZBx0JSO0l03-4">
          <mxGeometry relative="1" as="geometry" />
        </mxCell>
        <mxCell id="EbhsNf4pfZBx0JSO0l03-23" value="姓名" style="ellipse;whiteSpace=wrap;html=1;fontSize=16;" vertex="1" parent="1">
          <mxGeometry x="590" y="550" width="70" height="40" as="geometry" />
        </mxCell>
        <mxCell id="EbhsNf4pfZBx0JSO0l03-49" style="rounded=0;orthogonalLoop=1;jettySize=auto;html=1;entryX=1;entryY=0.5;entryDx=0;entryDy=0;fontSize=16;" edge="1" parent="1" source="EbhsNf4pfZBx0JSO0l03-24" target="EbhsNf4pfZBx0JSO0l03-4">
          <mxGeometry relative="1" as="geometry" />
        </mxCell>
        <mxCell id="EbhsNf4pfZBx0JSO0l03-24" value="所属专业" style="ellipse;whiteSpace=wrap;html=1;fontSize=16;" vertex="1" parent="1">
          <mxGeometry x="680" y="550" width="70" height="40" as="geometry" />
        </mxCell>
        <mxCell id="EbhsNf4pfZBx0JSO0l03-48" style="rounded=0;orthogonalLoop=1;jettySize=auto;html=1;fontSize=16;" edge="1" parent="1" source="EbhsNf4pfZBx0JSO0l03-25" target="EbhsNf4pfZBx0JSO0l03-4">
          <mxGeometry relative="1" as="geometry" />
        </mxCell>
        <mxCell id="EbhsNf4pfZBx0JSO0l03-25" value="所在班级" style="ellipse;whiteSpace=wrap;html=1;fontSize=16;" vertex="1" parent="1">
          <mxGeometry x="690" y="460" width="70" height="40" as="geometry" />
        </mxCell>
        <mxCell id="EbhsNf4pfZBx0JSO0l03-28" style="edgeStyle=orthogonalEdgeStyle;rounded=0;orthogonalLoop=1;jettySize=auto;html=1;exitX=0;exitY=0.5;exitDx=0;exitDy=0;shape=link;fontSize=16;" edge="1" parent="1" source="EbhsNf4pfZBx0JSO0l03-27" target="EbhsNf4pfZBx0JSO0l03-1">
          <mxGeometry relative="1" as="geometry" />
        </mxCell>
        <mxCell id="EbhsNf4pfZBx0JSO0l03-62" value="n" style="edgeLabel;html=1;align=center;verticalAlign=middle;resizable=0;points=[];fontSize=16;" vertex="1" connectable="0" parent="EbhsNf4pfZBx0JSO0l03-28">
          <mxGeometry x="0.0667" y="-4" relative="1" as="geometry">
            <mxPoint as="offset" />
          </mxGeometry>
        </mxCell>
        <mxCell id="EbhsNf4pfZBx0JSO0l03-29" style="edgeStyle=orthogonalEdgeStyle;rounded=0;orthogonalLoop=1;jettySize=auto;html=1;exitX=1;exitY=0.5;exitDx=0;exitDy=0;shape=link;fontSize=16;" edge="1" parent="1" source="EbhsNf4pfZBx0JSO0l03-27" target="EbhsNf4pfZBx0JSO0l03-2">
          <mxGeometry relative="1" as="geometry" />
        </mxCell>
        <mxCell id="EbhsNf4pfZBx0JSO0l03-63" value="1" style="edgeLabel;html=1;align=center;verticalAlign=middle;resizable=0;points=[];fontSize=16;" vertex="1" connectable="0" parent="EbhsNf4pfZBx0JSO0l03-29">
          <mxGeometry x="-0.2333" y="-3" relative="1" as="geometry">
            <mxPoint as="offset" />
          </mxGeometry>
        </mxCell>
        <mxCell id="EbhsNf4pfZBx0JSO0l03-27" value="教授" style="rhombus;whiteSpace=wrap;html=1;fontSize=16;" vertex="1" parent="1">
          <mxGeometry x="380" y="270" width="80" height="40" as="geometry" />
        </mxCell>
        <mxCell id="EbhsNf4pfZBx0JSO0l03-32" style="rounded=0;orthogonalLoop=1;jettySize=auto;html=1;exitX=0.5;exitY=1;exitDx=0;exitDy=0;entryX=0.5;entryY=0;entryDx=0;entryDy=0;shape=link;fontSize=16;" edge="1" parent="1" source="EbhsNf4pfZBx0JSO0l03-30" target="EbhsNf4pfZBx0JSO0l03-3">
          <mxGeometry relative="1" as="geometry" />
        </mxCell>
        <mxCell id="EbhsNf4pfZBx0JSO0l03-60" value="m" style="edgeLabel;html=1;align=center;verticalAlign=middle;resizable=0;points=[];fontSize=16;" vertex="1" connectable="0" parent="EbhsNf4pfZBx0JSO0l03-32">
          <mxGeometry x="-0.1" y="2" relative="1" as="geometry">
            <mxPoint as="offset" />
          </mxGeometry>
        </mxCell>
        <mxCell id="EbhsNf4pfZBx0JSO0l03-30" value="排课" style="rhombus;whiteSpace=wrap;html=1;fontSize=16;" vertex="1" parent="1">
          <mxGeometry x="220" y="360" width="80" height="40" as="geometry" />
        </mxCell>
        <mxCell id="EbhsNf4pfZBx0JSO0l03-37" style="rounded=0;orthogonalLoop=1;jettySize=auto;html=1;shape=link;fontSize=16;" edge="1" parent="1" source="EbhsNf4pfZBx0JSO0l03-36" target="EbhsNf4pfZBx0JSO0l03-4">
          <mxGeometry relative="1" as="geometry" />
        </mxCell>
        <mxCell id="EbhsNf4pfZBx0JSO0l03-64" value="m" style="edgeLabel;html=1;align=center;verticalAlign=middle;resizable=0;points=[];fontSize=16;" vertex="1" connectable="0" parent="EbhsNf4pfZBx0JSO0l03-37">
          <mxGeometry relative="1" as="geometry">
            <mxPoint as="offset" />
          </mxGeometry>
        </mxCell>
        <mxCell id="EbhsNf4pfZBx0JSO0l03-38" style="rounded=0;orthogonalLoop=1;jettySize=auto;html=1;shape=link;fontSize=16;" edge="1" parent="1" source="EbhsNf4pfZBx0JSO0l03-36" target="EbhsNf4pfZBx0JSO0l03-2">
          <mxGeometry relative="1" as="geometry" />
        </mxCell>
        <mxCell id="EbhsNf4pfZBx0JSO0l03-65" value="n" style="edgeLabel;html=1;align=center;verticalAlign=middle;resizable=0;points=[];fontSize=16;" vertex="1" connectable="0" parent="EbhsNf4pfZBx0JSO0l03-38">
          <mxGeometry x="-0.05" y="-1" relative="1" as="geometry">
            <mxPoint as="offset" />
          </mxGeometry>
        </mxCell>
        <mxCell id="EbhsNf4pfZBx0JSO0l03-36" value="选课" style="rhombus;whiteSpace=wrap;html=1;fontSize=16;" vertex="1" parent="1">
          <mxGeometry x="540" y="360" width="80" height="40" as="geometry" />
        </mxCell>
        <mxCell id="EbhsNf4pfZBx0JSO0l03-59" style="rounded=0;orthogonalLoop=1;jettySize=auto;html=1;entryX=0.45;entryY=1.017;entryDx=0;entryDy=0;entryPerimeter=0;fontSize=16;" edge="1" parent="1" source="EbhsNf4pfZBx0JSO0l03-17" target="EbhsNf4pfZBx0JSO0l03-3">
          <mxGeometry relative="1" as="geometry" />
        </mxCell>
      </root>
    </mxGraphModel>
  </diagram>
</mxfile>
